<?xml version="1.0" encoding="UTF-8" standalone="no"?>
<!-- Created with Inkscape (http://www.inkscape.org/) -->

<svg
   xmlns:dc="http://purl.org/dc/elements/1.1/"
   xmlns:cc="http://creativecommons.org/ns#"
   xmlns:rdf="http://www.w3.org/1999/02/22-rdf-syntax-ns#"
   xmlns:svg="http://www.w3.org/2000/svg"
   xmlns="http://www.w3.org/2000/svg"
   xmlns:sodipodi="http://sodipodi.sourceforge.net/DTD/sodipodi-0.dtd"
   xmlns:inkscape="http://www.inkscape.org/namespaces/inkscape"
   width="400"
   height="300"
   viewBox="0 0 105.83333 79.375002"
   version="1.1"
   id="svg8"
   inkscape:version="0.92.1 r"
   sodipodi:docname="logo.svg">
  <defs
     id="defs2" />
  <sodipodi:namedview
     id="base"
     pagecolor="#ffffff"
     bordercolor="#666666"
     borderopacity="1.0"
     inkscape:pageopacity="0.0"
     inkscape:pageshadow="2"
     inkscape:zoom="1.4"
     inkscape:cx="277.10853"
     inkscape:cy="210.65146"
     inkscape:document-units="mm"
     inkscape:current-layer="text4487"
     showgrid="false"
     units="px"
     inkscape:window-width="1920"
     inkscape:window-height="1023"
     inkscape:window-x="0"
     inkscape:window-y="0"
     inkscape:window-maximized="1" />
  <metadata
     id="metadata5">
    <rdf:RDF>
      <cc:Work
         rdf:about="">
        <dc:format>image/svg+xml</dc:format>
        <dc:type
           rdf:resource="http://purl.org/dc/dcmitype/StillImage" />
        <dc:title></dc:title>
      </cc:Work>
    </rdf:RDF>
  </metadata>
  <g
     inkscape:label="Layer 1"
     inkscape:groupmode="layer"
     id="layer1"
     transform="translate(0,-217.62498)">
    <g
       aria-label="Alf.io"
       style="font-style:normal;font-variant:normal;font-weight:normal;font-stretch:normal;font-size:5.64444447px;line-height:6.61458302px;font-family:'Architects Daughter';-inkscape-font-specification:'Architects Daughter';letter-spacing:0px;word-spacing:0px;fill:#000000;fill-opacity:1;stroke:none;stroke-width:0.26458332px;stroke-linecap:butt;stroke-linejoin:miter;stroke-opacity:1"
       id="text4487">
      <path
         d="m 27.822593,259.02814 h 1.157553 q 0.702799,0 1.322916,0.12402 0.661458,0.12402 0.661458,0.90951 0.289388,1.65364 -1.943033,1.6123 -0.620117,-0.0413 -1.157552,-0.0827 -0.496094,-0.0413 -0.826823,0 -0.330729,0 -0.289388,0.2067 0.413411,1.1989 0.868164,2.68718 0.496093,1.48828 1.07487,2.97656 1.488281,3.67936 2.811197,5.29167 -0.702799,0.86816 -1.653645,1.44694 -0.909506,0.57877 -0.992188,0.57877 -0.04134,0 -0.08268,-0.0413 l -5.829102,-12.27832 -11.286132,2.76986 -0.413411,1.73633 q -1.198894,4.75423 -2.6871749,6.61458 -0.2480469,0.41341 -1.0335286,0.0827 -1.3229166,-0.49609 -1.3229166,-0.82682 0,-0.0827 0.868164,-2.39779 0.868164,-2.3151 1.7363281,-4.67155 0.9095052,-2.39778 1.860351,-5.00227 0.992188,-2.6045 1.860352,-4.96094 0.868164,-2.35645 1.570963,-4.2168 0.7028,-1.90169 0.992188,-2.72851 0.289388,-0.86817 0.37207,-1.48829 0.124024,-0.66145 0.330729,-1.11621 0.413412,-0.95084 2.067058,-0.95084 1.777669,0.99219 2.728515,2.60449 0.992188,1.57096 1.653646,3.38997 0.702799,1.81901 1.364258,3.67937 0.661458,1.86035 1.777669,3.38997 0.37207,0.57878 1.116211,0.62012 0.74414,0.0413 1.322916,0.0413 z m -10.335286,-8.92969 q -0.330729,2.52181 -1.488281,5.16764 -1.157552,2.64584 -1.860351,4.13412 -0.7028,1.44694 -1.198894,2.68717 2.811198,0 6.903972,-1.65364 1.033528,-0.45476 1.984375,-0.82683 -1.943034,-8.30957 -4.340821,-9.50846 z"
         style="font-size:42.33333206px;fill:#ffffff;stroke-width:0.26458332px"
         id="path4527" />
      <path
         d="m 34.106448,258.11863 q -0.08268,-2.23242 -0.165365,-3.96875 -0.08268,-1.77767 -0.124023,-2.60449 0,-0.86816 -0.661459,-4.17546 0.372071,-0.49609 0.7028,-0.95084 0.37207,-0.45475 1.033528,-0.45475 1.44694,0 2.232422,12.19563 0.413412,7.06934 0.413412,14.13868 0,1.90169 -2.645834,1.90169 L 34.5612,274.159 q 0,-2.14974 -0.124023,-5.49838 -0.124024,-3.34863 -0.206706,-5.8291 -0.04134,-2.48047 -0.124023,-4.71289 z"
         style="font-size:42.33333206px;fill:#ffffff;stroke-width:0.26458332px"
         id="path4529" />
      <path
         d="m 63.789388,260.35105 q 0.206705,0 0.206705,1.11622 0,1.11621 0.08268,1.52962 l -14.180013,1.73633 0.744141,9.17773 -3.348633,-0.16536 q 0,-3.72071 -0.826823,-8.51628 l -5.374349,2.06706 q -0.537435,0 -0.909505,-0.62012 -0.661458,-1.07487 -0.661458,-1.94303 l 6.283854,-2.23243 q -0.826823,-7.11067 -0.826823,-11.53418 0,-4.46484 0.744141,-6.94531 0.74414,-2.48047 2.149739,-3.30729 1.44694,-0.86816 3.059245,-0.86816 1.612304,0 3.26595,0.7028 1.694987,0.7028 3.224609,1.77767 1.529623,1.07487 2.604493,2.43912 1.074869,1.32292 1.074869,2.60449 0,0.99219 -0.206705,1.4056 -1.653646,-2.3151 -4.010091,-4.13411 -2.811198,-2.14974 -5.291667,-2.14974 -2.356445,0 -3.141927,3.34863 -0.37207,1.73633 -0.37207,4.9196 0,3.14193 0.165364,5.78776 0.165365,2.60449 0.992188,5.25032 2.563151,0 5.746419,-0.45475 6.118489,-0.95084 8.805664,-0.99219 z"
         style="font-size:42.33333206px;fill:#ffffff;stroke-width:0.26458332px"
         id="path4531" />
      <path
         d="m 65.98047,274.20034 q -0.950846,-0.0827 -0.950846,-0.82683 0,-0.9095 1.033529,-1.69498 0.413411,-0.28939 0.620117,-0.28939 0.248047,0 0.37207,0.0413 0.868164,0 1.157552,0.37207 0.330729,0.33073 0.330729,0.90951 0,0.57877 -0.248046,0.86816 -0.248047,0.28939 -0.620118,0.41341 -0.620117,0.20671 -1.694987,0.20671 z"
         style="font-size:42.33333206px;fill:#ffffff;stroke-width:0.26458332px"
         id="path4533" />
      <path
         d="m 74.868813,254.72866 q 0.537435,7.73079 0.909505,17.90071 -0.248047,1.28158 -1.984375,1.28158 -0.454752,0 -0.950846,-0.16536 -0.454753,-0.20671 -0.578776,-0.53744 v -18.47949 z m -3.844727,-5.6224 q 0,-1.44694 1.694987,-1.44694 1.116211,0 1.819011,0.4961 0.124023,0.45475 0.124023,0.9095 0,0.41341 -0.330729,0.82682 -0.330729,0.41342 -0.992187,0.41342 -0.661459,0 -1.322917,-0.28939 -0.661458,-0.33073 -0.992188,-0.90951 z"
         style="font-size:42.33333206px;fill:#ffffff;stroke-width:0.26458332px"
         id="path4535" />
      <path
         d="m 78.630857,266.30418 q 0,-4.87826 4.216797,-7.85482 3.348633,-2.35644 8.061523,-2.85254 0.248047,0 1.157552,0 0.909505,0 2.439128,0.53744 3.389974,1.15755 4.630208,4.09277 0.496094,1.15755 0.496094,1.98438 0,0.78548 -0.04134,1.11621 0,5.16764 -3.927409,8.1442 -3.638021,2.72852 -9.095052,2.72852 -3.927409,0 -5.953125,-1.81901 -1.984375,-1.81901 -1.984375,-6.07715 z m 2.852539,0.99219 q 0,2.56315 1.364258,3.47265 1.033529,0.66146 3.472656,0.66146 2.439128,0 4.299479,-0.37207 1.860352,-0.37207 3.307292,-1.28157 3.100586,-1.98438 3.100586,-6.15984 0,-2.48046 -1.322917,-4.05143 -1.44694,-1.69498 -3.803385,-1.69498 -1.612305,0.28938 -3.265951,0.62011 -1.612304,0.33073 -3.059244,1.28158 -3.141927,2.02571 -4.092774,7.52409 z"
         style="font-size:42.33333206px;fill:#ffffff;stroke-width:0.26458332px"
         id="path4537" />
    </g>
  </g>
</svg>
